<svg width="23" height="25" viewBox="0 0 23 25" fill="none" xmlns="http://www.w3.org/2000/svg">
<path fill-rule="evenodd" clip-rule="evenodd" d="M4.80456 15.12C7.26742 15.12 9.26394 17.1245 9.26394 19.5973C9.26394 22.07 7.26742 24.0819 4.80456 24.0819C2.3417 24.0819 0.337891 22.07 0.337891 19.5973C0.337891 17.1245 2.3417 15.12 4.80456 15.12Z" fill="white"/>
<path fill-rule="evenodd" clip-rule="evenodd" d="M17.602 1C20.0648 1 22.0686 3.01186 22.0686 5.48461C22.0686 7.95736 20.0648 9.9619 17.602 9.9619C15.1391 9.9619 13.1426 7.95736 13.1426 5.48461C13.1426 3.01186 15.1391 1 17.602 1Z" fill="white"/>
<path fill-rule="evenodd" clip-rule="evenodd" d="M4.80456 0.877075C7.26742 0.877075 9.26394 2.88893 9.26394 5.36168C9.26394 7.83444 7.26742 9.83898 4.80456 9.83898C2.3417 9.83898 0.337891 7.83444 0.337891 5.36168C0.337891 2.88893 2.3417 0.877075 4.80456 0.877075Z" fill="#EC008C"/>
<path fill-rule="evenodd" clip-rule="evenodd" d="M17.5925 15.1205C20.0502 15.1205 22.0498 17.1208 22.0498 19.5883C22.0498 22.0559 20.0502 24.0635 17.5925 24.0635C15.1349 24.0635 13.1426 22.0559 13.1426 19.5883C13.1426 17.1208 15.1349 15.1205 17.5925 15.1205Z" fill="#00AEEF"/>
</svg>
